<?xml version="1.0" encoding="UTF-8"?>
<svg id="uuid-a0f481c1-016c-4c83-92d7-50ef08184d38" data-name="Layer 2" xmlns="http://www.w3.org/2000/svg" viewBox="0 0 1080 1080">
  <g id="uuid-cbb091df-d369-4afd-8ef8-6c794d5cde5d" data-name="Layer 1">
    <g>
      <path d="m798.58,129.62c-74.85-47.26-163.52-74.62-258.58-74.62-2.22,0-4.43.02-6.64.05v74.57h265.22Z" style="fill: #b22234;"/>
      <path d="m281.42,950.38c74.85,47.26,163.52,74.62,258.58,74.62s183.73-27.36,258.58-74.62H281.42Z" style="fill: #b22234;"/>
      <path d="m1012.01,651.92H67.99c6.08,25.72,14.2,50.66,24.19,74.62h895.64c9.99-23.96,18.12-48.89,24.19-74.62Z" style="fill: #b22234;"/>
      <path d="m533.36,577.31h490.22c.94-12.31,1.41-24.75,1.41-37.31s-.48-24.99-1.41-37.31h-490.22v74.61Z" style="fill: #b22234;"/>
      <path d="m533.36,278.85h415.39c-17.15-26.79-36.86-51.77-58.79-74.62h-356.61v74.62Z" style="fill: #b22234;"/>
      <path d="m948.76,801.15H131.24c17.15,26.79,36.86,51.77,58.79,74.62h699.94c21.92-22.85,41.64-47.83,58.79-74.62Z" style="fill: #b22234;"/>
      <path d="m533.36,428.08h478.65c-6.08-25.72-14.2-50.66-24.19-74.62h-454.46v74.62Z" style="fill: #b22234;"/>
      <path d="m987.82,726.54H92.18c10.89,26.1,23.98,51.06,39.07,74.62h817.51c15.08-23.56,28.18-48.51,39.07-74.62Z" style="fill: #fff;"/>
      <path d="m1023.59,577.31h-490.22s-476.95,0-476.95,0c1.94,25.47,5.85,50.39,11.57,74.61h944.03c5.72-24.22,9.64-49.14,11.57-74.62Z" style="fill: #fff;"/>
      <path d="m533.36,502.69h490.22c-1.94-25.47-5.85-50.39-11.57-74.62h-478.65v74.62Z" style="fill: #fff;"/>
      <path d="m533.36,353.46h454.46c-10.89-26.1-23.98-51.06-39.07-74.62h-415.39v74.62Z" style="fill: #fff;"/>
      <path d="m889.97,875.77H190.03c27.26,28.41,57.94,53.5,91.39,74.62h517.16c33.45-21.12,64.13-46.21,91.39-74.62Z" style="fill: #fff;"/>
      <path d="m533.36,204.23h356.61c-27.26-28.41-57.95-53.5-91.39-74.62h-265.22v74.62Z" style="fill: #fff;"/>
      <path d="m342.75,96.8c-.9.4-1.81.8-2.71,1.21h2.31l.39-1.21Z" style="fill: #3c3b6e;"/>
      <path d="m533.36,577.31V55.05c-63.55.85-124.14,13.93-179.54,36.98l1.94,5.98h21.68l-17.54,12.75,6.7,20.62-17.54-12.75-17.54,12.75,6.7-20.62-9.94-7.22c-71.9,34.94-133.87,87.12-180.53,151.17h10.31l6.7-20.62,6.7,20.62h21.68l-17.54,12.75,6.7,20.62-17.54-12.75-17.54,12.75,6.7-20.62-10.07-7.31c-10.61,14.99-20.39,30.62-29.28,46.8h17.14l-17.54,12.75,6.7,20.62-17.13-12.44c-20.56,42.19-35.17,87.81-42.76,135.77h9.29l-10.43,7.58c-.93,6.52-1.73,13.09-2.39,19.69l1.98,6.1-2.39-1.74c-1.35,14.74-2.04,29.66-2.04,44.75,0,12.55.48,24.99,1.41,37.31h476.95Zm-335.55-165.91h21.68l6.7-20.62,6.7,20.62h21.68l-17.54,12.75,6.7,20.62-17.54-12.75-17.54,12.75,6.7-20.62-17.54-12.75Zm45.93-71.09l-17.54-12.75-17.54,12.75,6.7-20.62-17.54-12.75h21.68l6.7-20.62,6.7,20.62h21.68l-17.54,12.75,6.7,20.62Zm98.62-33.37l6.7-20.62,6.7,20.62h21.68l-17.54,12.75,6.7,20.62-17.54-12.75-17.54,12.75,6.7-20.62-17.54-12.75h21.68Zm13.4,208.92h21.68l-17.54,12.75,6.7,20.62-17.54-12.75-17.54,12.75,6.7-20.62-17.54-12.75h21.68l6.7-20.62,6.7,20.62Zm-74.84-52.23l6.7-20.62,6.7,20.62h21.68l-17.54,12.75,6.7,20.62-17.54-12.75-17.54,12.75,6.7-20.62-17.54-12.75h21.68Zm147.11,33.37l-17.54-12.75-17.54,12.75,6.7-20.62-17.54-12.75h21.68l6.7-20.62,6.7,20.62h21.68l-17.54,12.75,6.7,20.62Zm-61.43-52.23l-17.54-12.75-17.54,12.75,6.7-20.62-17.54-12.75h21.68l6.7-20.62,6.7,20.62h21.68l-17.54,12.75,6.7,20.62Zm-72.28-85.6h21.68l-17.54,12.75,6.7,20.62-17.54-12.75-17.54,12.75,6.7-20.62-17.54-12.75h21.68l6.7-20.62,6.7,20.62Zm-136.27,104.46l6.7-20.62,6.7,20.62h21.68l-17.54,12.75,6.7,20.62-17.54-12.75-17.54,12.75,6.7-20.62-17.54-12.75h21.68Zm61.43,52.23l6.7-20.62,6.7,20.62h21.68l-17.54,12.75,6.7,20.62-17.54-12.75-17.54,12.75,6.7-20.62-17.54-12.75h21.68Zm259.14,0h21.68l-17.54,12.75,6.7,20.62-17.54-12.75-17.54,12.75,6.7-20.62-17.54-12.75h21.68l6.7-20.62,6.7,20.62Zm10.84-71.09l-17.54-12.75-17.54,12.75,6.7-20.62-17.54-12.75h21.68l6.7-20.62,6.7,20.62h21.68l-17.54,12.75,6.7,20.62Zm-72.28-85.6h21.68l-17.54,12.75,6.7,20.62-17.54-12.75-17.54,12.75,6.7-20.62-17.54-12.75h21.68l6.7-20.62,6.7,20.62Zm72.28-18.86l-17.54-12.75-17.54,12.75,6.7-20.62-17.54-12.75h21.68l6.7-20.62,6.7,20.62h21.68l-17.54,12.75,6.7,20.62Zm-61.43-52.23l-17.54-12.75-17.54,12.75,6.7-20.62-17.54-12.75h21.68l6.7-20.62,6.7,20.62h21.68l-17.54,12.75,6.7,20.62Zm61.43-52.23l-17.54-12.75-17.54,12.75,6.7-20.62-17.54-12.75h21.68l6.7-20.62,6.7,20.62h21.68l-17.54,12.75,6.7,20.62Zm-24.24-137.83l6.7-20.62,6.7,20.62h21.68l-17.54,12.75,6.7,20.62-17.54-12.75-17.54,12.75,6.7-20.62-17.54-12.75h21.68Zm-54.73,31.61l6.7,20.62h21.68l-17.54,12.75,6.7,20.62-17.54-12.75-17.54,12.75,6.7-20.62-17.54-12.75h21.68l6.7-20.62Zm-68.13,72.85l6.7-20.62,6.7,20.62h21.68l-17.54,12.75,6.7,20.62-17.54-12.75-17.54,12.75,6.7-20.62-17.54-12.75h21.68Zm-61.43-52.23l6.7-20.62,6.7,20.62h21.68l-17.54,12.75,6.7,20.62-17.54-12.75-17.54,12.75,6.7-20.62-17.54-12.75h21.68Zm-83.12,52.23h21.68l6.7-20.62,6.7,20.62h21.68l-17.54,12.75,6.7,20.62-17.54-12.75-17.54,12.75,6.7-20.62-17.54-12.75Zm61.43,52.23h21.68l6.7-20.62,6.7,20.62h21.68l-17.54,12.75,6.7,20.62-17.54-12.75-17.54,12.75,6.7-20.62-17.54-12.75Zm-94.48,83.84l6.7,20.62h21.68l-17.54,12.75,6.7,20.62-17.54-12.75-17.54,12.75,6.7-20.62-17.54-12.75h21.68l6.7-20.62Zm-89.82,72.85h21.68l6.7-20.62,6.7,20.62h21.68l-17.54,12.75,6.7,20.62-17.54-12.75-17.54,12.75,6.7-20.62-17.54-12.75Zm28.39,83.84l6.7,20.62h21.68l-17.54,12.75,6.7,20.62-17.54-12.75-17.54,12.75,6.7-20.62-17.54-12.75h21.68l6.7-20.62Z" style="fill: #3c3b6e;"/>
      <path d="m57.46,490.9c-.15,1.45-.28,2.9-.41,4.36l2.39,1.74-1.98-6.1Z" style="fill: #fff;"/>
      <path d="m60.99,463.62c-.4,2.52-.78,5.05-1.14,7.58l10.43-7.58h-9.29Z" style="fill: #fff;"/>
      <path d="m114.17,319.68l17.54-12.75h-17.14c-3.77,6.88-7.39,13.85-10.83,20.93l17.13,12.44-6.7-20.62Z" style="fill: #fff;"/>
      <polygon points="85.79 444.76 103.33 432.02 120.87 444.76 114.17 424.14 131.71 411.39 110.03 411.39 103.33 390.77 96.63 411.39 74.94 411.39 92.49 424.14 85.79 444.76" style="fill: #fff;"/>
      <polygon points="74.94 515.85 92.49 528.6 85.79 549.22 103.33 536.48 120.87 549.22 114.17 528.6 131.71 515.85 110.03 515.85 103.33 495.23 96.63 515.85 74.94 515.85" style="fill: #fff;"/>
      <path d="m147.22,288.07l17.54-12.75,17.54,12.75-6.7-20.62,17.54-12.75h-21.68l-6.7-20.62-6.7,20.62h-10.31c-1.31,1.8-2.61,3.61-3.9,5.43l10.07,7.31-6.7,20.62Z" style="fill: #fff;"/>
      <polygon points="136.38 359.16 153.92 371.91 147.22 392.53 164.76 379.78 182.3 392.53 175.6 371.91 193.15 359.16 171.46 359.16 164.76 338.54 158.06 359.16 136.38 359.16" style="fill: #fff;"/>
      <polygon points="147.22 496.99 164.76 484.25 182.3 496.99 175.6 476.37 193.15 463.62 171.46 463.62 164.76 443 158.06 463.62 136.38 463.62 153.92 476.37 147.22 496.99" style="fill: #fff;"/>
      <polygon points="208.65 235.84 226.2 223.09 243.74 235.84 237.04 215.22 254.58 202.47 232.9 202.47 226.2 181.85 219.49 202.47 197.81 202.47 215.35 215.22 208.65 235.84" style="fill: #fff;"/>
      <polygon points="232.9 306.93 226.2 286.31 219.49 306.93 197.81 306.93 215.35 319.68 208.65 340.3 226.2 327.55 243.74 340.3 237.04 319.68 254.58 306.93 232.9 306.93" style="fill: #fff;"/>
      <polygon points="208.65 444.76 226.2 432.02 243.74 444.76 237.04 424.14 254.58 411.39 232.9 411.39 226.2 390.77 219.49 411.39 197.81 411.39 215.35 424.14 208.65 444.76" style="fill: #fff;"/>
      <polygon points="208.65 549.22 226.2 536.48 243.74 549.22 237.04 528.6 254.58 515.85 232.9 515.85 226.2 495.23 219.49 515.85 197.81 515.85 215.35 528.6 208.65 549.22" style="fill: #fff;"/>
      <polygon points="270.09 183.61 287.63 170.86 305.17 183.61 298.47 162.98 316.01 150.24 294.33 150.24 287.63 129.62 280.93 150.24 259.24 150.24 276.79 162.98 270.09 183.61" style="fill: #fff;"/>
      <polygon points="270.09 288.07 287.63 275.32 305.17 288.07 298.47 267.45 316.01 254.7 294.33 254.7 287.63 234.08 280.93 254.7 259.24 254.7 276.79 267.45 270.09 288.07" style="fill: #fff;"/>
      <polygon points="280.93 359.16 259.24 359.16 276.79 371.91 270.09 392.53 287.63 379.78 305.17 392.53 298.47 371.91 316.01 359.16 294.33 359.16 287.63 338.54 280.93 359.16" style="fill: #fff;"/>
      <polygon points="270.09 496.99 287.63 484.25 305.17 496.99 298.47 476.37 316.01 463.62 294.33 463.62 287.63 443 280.93 463.62 259.24 463.62 276.79 476.37 270.09 496.99" style="fill: #fff;"/>
      <path d="m331.52,131.38l17.54-12.75,17.54,12.75-6.7-20.62,17.54-12.75h-21.68l-1.94-5.98c-3.71,1.54-7.4,3.13-11.07,4.77l-.39,1.21h-2.31c-3.95,1.79-7.87,3.64-11.76,5.53l9.94,7.22-6.7,20.62Z" style="fill: #fff;"/>
      <polygon points="338.22 215.22 331.52 235.84 349.06 223.09 366.6 235.84 359.9 215.22 377.45 202.47 355.76 202.47 349.06 181.85 342.36 202.47 320.68 202.47 338.22 215.22" style="fill: #fff;"/>
      <polygon points="331.52 340.3 349.06 327.55 366.6 340.3 359.9 319.68 377.45 306.93 355.76 306.93 349.06 286.31 342.36 306.93 320.68 306.93 338.22 319.68 331.52 340.3" style="fill: #fff;"/>
      <polygon points="355.76 411.39 349.06 390.77 342.36 411.39 320.68 411.39 338.22 424.14 331.52 444.76 349.06 432.02 366.6 444.76 359.9 424.14 377.45 411.39 355.76 411.39" style="fill: #fff;"/>
      <polygon points="342.36 515.85 320.68 515.85 338.22 528.6 331.52 549.22 349.06 536.48 366.6 549.22 359.9 528.6 377.45 515.85 355.76 515.85 349.06 495.23 342.36 515.85" style="fill: #fff;"/>
      <polygon points="382.11 150.24 399.65 162.98 392.95 183.61 410.5 170.86 428.04 183.61 421.34 162.98 438.88 150.24 417.2 150.24 410.5 129.62 403.79 150.24 382.11 150.24" style="fill: #fff;"/>
      <polygon points="438.88 254.7 417.2 254.7 410.5 234.08 403.79 254.7 382.11 254.7 399.65 267.45 392.95 288.07 410.5 275.32 428.04 288.07 421.34 267.45 438.88 254.7" style="fill: #fff;"/>
      <polygon points="403.79 359.16 382.11 359.16 399.65 371.91 392.95 392.53 410.5 379.78 428.04 392.53 421.34 371.91 438.88 359.16 417.2 359.16 410.5 338.54 403.79 359.16" style="fill: #fff;"/>
      <polygon points="417.2 463.62 410.5 443 403.79 463.62 382.11 463.62 399.65 476.37 392.95 496.99 410.5 484.25 428.04 496.99 421.34 476.37 438.88 463.62 417.2 463.62" style="fill: #fff;"/>
      <polygon points="454.39 131.38 471.93 118.63 489.47 131.38 482.77 110.75 500.31 98.01 478.63 98.01 471.93 77.38 465.23 98.01 443.54 98.01 461.09 110.75 454.39 131.38" style="fill: #fff;"/>
      <polygon points="500.31 202.47 478.63 202.47 471.93 181.85 465.23 202.47 443.54 202.47 461.09 215.22 454.39 235.84 471.93 223.09 489.47 235.84 482.77 215.22 500.31 202.47" style="fill: #fff;"/>
      <polygon points="478.63 306.93 471.93 286.31 465.23 306.93 443.54 306.93 461.09 319.68 454.39 340.3 471.93 327.55 489.47 340.3 482.77 319.68 500.31 306.93 478.63 306.93" style="fill: #fff;"/>
      <polygon points="500.31 411.39 478.63 411.39 471.93 390.77 465.23 411.39 443.54 411.39 461.09 424.14 454.39 444.76 471.93 432.02 489.47 444.76 482.77 424.14 500.31 411.39" style="fill: #fff;"/>
      <polygon points="465.23 515.85 443.54 515.85 461.09 528.6 454.39 549.22 471.93 536.48 489.47 549.22 482.77 528.6 500.31 515.85 478.63 515.85 471.93 495.23 465.23 515.85" style="fill: #fff;"/>
    </g>
    <rect width="1080" height="1080" style="fill: none;"/>
    <path d="m540,85c61.44,0,121.02,12.03,177.1,35.74,54.18,22.92,102.84,55.73,144.64,97.52,41.8,41.8,74.61,90.46,97.52,144.64,23.72,56.08,35.74,115.66,35.74,177.1s-12.03,121.02-35.74,177.1c-22.92,54.18-55.73,102.84-97.52,144.64-41.8,41.8-90.46,74.61-144.64,97.52-56.08,23.72-115.66,35.74-177.1,35.74s-121.02-12.03-177.1-35.74c-54.18-22.92-102.84-55.73-144.64-97.52-41.8-41.8-74.61-90.46-97.52-144.64-23.72-56.08-35.74-115.66-35.74-177.1s12.03-121.02,35.74-177.1c22.92-54.18,55.73-102.84,97.52-144.64,41.8-41.8,90.46-74.61,144.64-97.52,56.08-23.72,115.66-35.74,177.1-35.74m0-30c-267.86,0-485,217.14-485,485s217.14,485,485,485,485-217.14,485-485S807.86,55,540,55h0Z" style="fill: #f3f7f8;"/>
    <path d="m540,55c267.86,0,485,217.14,485,485s-217.14,485-485,485S55,807.86,55,540,272.14,55,540,55m0-30c-69.51,0-136.96,13.62-200.47,40.48-61.33,25.94-116.4,63.07-163.69,110.36s-84.42,102.36-110.36,163.69c-26.86,63.51-40.48,130.96-40.48,200.47s13.62,136.96,40.48,200.47c25.94,61.33,63.07,116.4,110.36,163.69,47.29,47.29,102.36,84.42,163.69,110.36,63.51,26.86,130.96,40.48,200.47,40.48s136.96-13.62,200.47-40.48c61.33-25.94,116.4-63.07,163.69-110.36,47.29-47.29,84.42-102.36,110.36-163.69,26.86-63.51,40.48-130.96,40.48-200.47s-13.62-136.96-40.48-200.47c-25.94-61.33-63.07-116.4-110.36-163.69-47.29-47.29-102.36-84.42-163.69-110.36-63.51-26.86-130.96-40.48-200.47-40.48h0Z" style="fill: #02111a;"/>
  </g>
</svg>