<?xml version="1.0" encoding="UTF-8"?>
<svg id="uuid-1ce45880-5fb5-48b2-b92c-4e6314ed64ea" data-name="Layer 2" xmlns="http://www.w3.org/2000/svg" xmlns:xlink="http://www.w3.org/1999/xlink" viewBox="0 0 1080 1080">
  <defs>
    <clipPath id="uuid-2ccd30cc-3edb-4486-8c0b-befb08ff42e6">
      <path d="m358.47,643.8v-62.53h-97.46v62.54s0,.03,0,.05c0,26.91,21.82,48.73,48.73,48.73s48.73-21.82,48.73-48.73c0-.02,0-.04,0-.06Z" style="fill: none;"/>
    </clipPath>
  </defs>
  <g id="uuid-2ad35fd5-bbb1-4876-98ed-8ce8481dab40" data-name="Layer 1">
    <rect width="1080" height="1080" style="fill: none;"/>
    <g>
      <path d="m540,55c-179.52,0-336.25,97.53-420.11,242.5h840.22c-83.86-144.97-240.59-242.5-420.11-242.5Z" style="fill: #c60b1e;"/>
      <path d="m960.11,782.5H119.89c83.86,144.97,240.59,242.5,420.11,242.5s336.25-97.53,420.11-242.5Z" style="fill: #c60b1e;"/>
      <path d="m960.11,297.5H119.89c-41.27,71.34-64.89,154.16-64.89,242.5s23.62,171.16,64.89,242.5h840.22c41.27-71.34,64.89-154.16,64.89-242.5s-23.62-171.16-64.89-242.5Z" style="fill: #ffc400;"/>
      <g>
        <path d="m380.43,384.81v6c4.43,0,8.61,1.71,11.77,4.82,6.6,6.49,6.69,17.15.2,23.75-3.18,3.24-7.43,5.02-11.97,5.02s-8.61-1.71-11.77-4.82c-3.2-3.15-4.98-7.35-5.02-11.83s1.67-8.72,4.82-11.91c3.18-3.23,7.43-5.02,11.97-5.02v-6m0,0c-5.9,0-11.79,2.27-16.25,6.81-8.83,8.97-8.71,23.41.27,32.23,4.44,4.37,10.21,6.54,15.98,6.54s11.79-2.27,16.25-6.81c8.83-8.97,8.71-23.41-.27-32.23-4.44-4.37-10.21-6.54-15.98-6.54h0Z" style="fill: #fff;"/>
        <path d="m336.44,390.81c4.54,0,8.79,1.78,11.97,5.02,3.15,3.2,4.86,7.43,4.82,11.91s-1.82,8.69-5.02,11.83c-3.16,3.11-7.34,4.82-11.77,4.82s-8.79-1.78-11.97-5.02c-6.49-6.6-6.41-17.25.2-23.75,3.16-3.11,7.34-4.82,11.77-4.82m0-6c-5.77,0-11.54,2.18-15.98,6.54-8.97,8.83-9.09,23.26-.27,32.23,4.46,4.54,10.35,6.81,16.25,6.81s11.54-2.18,15.98-6.54c8.97-8.83,9.09-23.26.27-32.23-4.46-4.54-10.35-6.81-16.25-6.81h0Z" style="fill: #fff;"/>
        <rect x="350.62" y="372.8" width="15.67" height="55.47" rx="7.84" ry="7.84" style="fill: #c8b100;"/>
        <path d="m300.76,407.5c4.54,0,8.79,1.78,11.97,5.02,3.15,3.2,4.86,7.43,4.82,11.91-.04,4.49-1.82,8.69-5.02,11.83-3.16,3.11-7.34,4.82-11.77,4.82s-8.79-1.78-11.97-5.02c-3.15-3.2-4.86-7.43-4.82-11.91s1.82-8.69,5.02-11.83c3.16-3.11,7.34-4.82,11.77-4.82m0-6c-5.77,0-11.54,2.18-15.98,6.54-8.97,8.83-9.09,23.26-.27,32.23,4.46,4.54,10.35,6.81,16.25,6.81s11.54-2.18,15.98-6.54c8.97-8.83,9.09-23.26.27-32.23-4.46-4.54-10.35-6.81-16.25-6.81h0Z" style="fill: #fff;"/>
        <path d="m416.15,401.5v6c4.43,0,8.61,1.71,11.77,4.82,3.2,3.15,4.98,7.35,5.02,11.83s-1.67,8.72-4.82,11.91c-3.18,3.24-7.43,5.02-11.97,5.02s-8.61-1.71-11.77-4.82c-6.6-6.49-6.69-17.15-.2-23.75,3.18-3.23,7.43-5.02,11.97-5.02v-6m0,0c-5.9,0-11.79,2.27-16.25,6.81-8.83,8.97-8.71,23.41.27,32.23,4.44,4.37,10.21,6.54,15.98,6.54s11.79-2.27,16.25-6.81c8.83-8.97,8.71-23.41-.27-32.23-4.44-4.37-10.21-6.54-15.98-6.54h0Z" style="fill: #fff;"/>
        <ellipse cx="213.97" cy="469.64" rx="10.69" ry="12.47" style="fill: #ad1519;"/>
        <ellipse cx="502.98" cy="469.64" rx="10.69" ry="12.47" style="fill: #ad1519;"/>
        <ellipse cx="358.46" cy="646.61" rx="97.45" ry="60.59" style="fill: #ccc;"/>
        <rect x="358.47" y="473.17" width="97.47" height="108.09" style="fill: #ccc;"/>
        <rect x="261.01" y="473.17" width="97.46" height="108.09" style="fill: #ad1519;"/>
        <rect x="481.35" y="473.17" width="43.25" height="230.47" style="fill: #ccc;"/>
        <rect x="192.35" y="473.17" width="43.25" height="230.47" style="fill: #ccc;"/>
        <rect x="183.78" y="677.47" width="60.39" height="26.17" style="fill: #005bbf;"/>
        <rect x="192.35" y="655.03" width="43.25" height="22.45" style="fill: #c8b100;"/>
        <rect x="481.35" y="655.03" width="43.25" height="22.45" style="fill: #c8b100;"/>
        <rect x="192.35" y="473.17" width="43.25" height="22.45" style="fill: #c8b100;"/>
        <rect x="481.35" y="473.17" width="43.25" height="22.45" style="fill: #c8b100;"/>
        <rect x="472.78" y="677.47" width="60.39" height="26.17" style="fill: #005bbf;"/>
        <rect x="455.94" y="532.33" width="80.63" height="24.4" style="fill: #ad1519;"/>
        <rect x="180.38" y="532.33" width="80.63" height="24.4" style="fill: #ad1519;"/>
        <polygon points="244.17 574.35 244.17 598.75 183.78 621.18 183.78 596.78 244.17 574.35" style="fill: #ad1519;"/>
        <polygon points="472.78 574.35 472.78 598.75 533.17 621.18 533.17 596.78 472.78 574.35" style="fill: #ad1519;"/>
        <path d="m358.47,581.26v62.59c0,26.91,21.82,48.73,48.73,48.73s48.73-21.82,48.73-48.73v-62.59h-97.47Z" style="fill: #ad1519;"/>
        <path d="m407.2,675.59c-17.5,0-31.73-14.24-31.73-31.73v-45.59h63.47v45.59c0,17.5-14.24,31.73-31.73,31.73Z" style="fill: #c8b100;"/>
        <path d="m407.2,658.59c-8.12,0-14.73-6.61-14.73-14.73v-28.59h29.47v28.59c0,8.12-6.61,14.73-14.73,14.73Z" style="fill: #ad1519;"/>
        <g style="clip-path: url(#uuid-2ccd30cc-3edb-4486-8c0b-befb08ff42e6);">
          <rect x="261.01" y="581.26" width="32.48" height="115.3" style="fill: #c8b100;"/>
          <rect x="293.49" y="581.26" width="32.48" height="115.3" style="fill: #ad1519;"/>
          <rect x="325.97" y="581.26" width="32.48" height="115.3" style="fill: #c8b100;"/>
        </g>
        <rect x="261.01" y="473.17" width="97.46" height="108.09" style="fill: #ad1519;"/>
        <rect x="278.01" y="490.17" width="63.46" height="24.81" style="fill: #c8b100;"/>
        <rect x="293.5" y="514.99" width="32.47" height="24.81" style="fill: #c8b100;"/>
        <rect x="278.01" y="539.8" width="63.46" height="24.81" style="fill: #c8b100;"/>
        <ellipse cx="407.2" cy="527.22" rx="31.74" ry="37.05" style="fill: #ed72aa;"/>
        <rect x="291.08" y="453.85" width="135.29" height="19.32" style="fill: #c8b100;"/>
        <path d="m437.08,438.76l-10.71,15.1h-135.29l-10.95-15.43c17.76-19.72,46.23-32.51,78.33-32.51s60.88,12.92,78.62,32.83Z" style="fill: #ad1519;"/>
        <circle cx="358.46" cy="436.1" r="7.84" style="fill: #c8b100;"/>
        <circle cx="316.04" cy="436.1" r="7.84" style="fill: #c8b100;"/>
        <circle cx="400.87" cy="436.1" r="7.84" style="fill: #c8b100;"/>
        <circle cx="358.6" cy="581.27" r="27.8" style="fill: #005bbf;"/>
      </g>
    </g>
    <rect width="1080" height="1080" style="fill: none;"/>
    <path d="m540,85c61.44,0,121.02,12.03,177.1,35.74,54.18,22.92,102.84,55.73,144.64,97.52,41.8,41.8,74.61,90.46,97.52,144.64,23.72,56.08,35.74,115.66,35.74,177.1s-12.03,121.02-35.74,177.1c-22.92,54.18-55.73,102.84-97.52,144.64-41.8,41.8-90.46,74.61-144.64,97.52-56.08,23.72-115.66,35.74-177.1,35.74s-121.02-12.03-177.1-35.74c-54.18-22.92-102.84-55.73-144.64-97.52-41.8-41.8-74.61-90.46-97.52-144.64-23.72-56.08-35.74-115.66-35.74-177.1s12.03-121.02,35.74-177.1c22.92-54.18,55.73-102.84,97.52-144.64,41.8-41.8,90.46-74.61,144.64-97.52,56.08-23.72,115.66-35.74,177.1-35.74m0-30c-267.86,0-485,217.14-485,485s217.14,485,485,485,485-217.14,485-485S807.86,55,540,55h0Z" style="fill: #f3f7f8;"/>
    <path d="m540,55c267.86,0,485,217.14,485,485s-217.14,485-485,485S55,807.86,55,540,272.14,55,540,55m0-30c-69.51,0-136.96,13.62-200.47,40.48-61.33,25.94-116.4,63.07-163.69,110.36s-84.42,102.36-110.36,163.69c-26.86,63.51-40.48,130.96-40.48,200.47s13.62,136.96,40.48,200.47c25.94,61.33,63.07,116.4,110.36,163.69,47.29,47.29,102.36,84.42,163.69,110.36,63.51,26.86,130.96,40.48,200.47,40.48s136.96-13.62,200.47-40.48c61.33-25.94,116.4-63.07,163.69-110.36,47.29-47.29,84.42-102.36,110.36-163.69,26.86-63.51,40.48-130.96,40.48-200.47s-13.62-136.96-40.48-200.47c-25.94-61.33-63.07-116.4-110.36-163.69-47.29-47.29-102.36-84.42-163.69-110.36-63.51-26.86-130.96-40.48-200.47-40.48h0Z" style="fill: #02111a;"/>
  </g>
</svg>