<?xml version="1.0" encoding="UTF-8"?>
<svg id="uuid-87a44ad4-41fe-4be2-ae0f-a8648ced563a" data-name="Layer 2" xmlns="http://www.w3.org/2000/svg" viewBox="0 0 1080 1080">
  <g id="uuid-bc4d72bf-097b-4bb4-a587-146251711f58" data-name="Layer 1">
    <g>
      <path d="m539.72,1076c-295.79-.06-535.84-240.27-535.72-536.07C4.11,243.8,244.32,3.81,540.4,4c296.2.19,535.8,240.25,535.6,536.62-.2,295.91-240.13,535.44-536.28,535.37ZM71.62,516.18c7.21,1.12,174.6.82,178.52-.29,2.62-63.55,14.09-125.6,34.3-186.16-43.97-17.52-85.08-38.96-124.39-64.62-24.98,34.49-44.7,71.26-59.45,110.72-16.9,45.19-26.47,91.9-28.98,140.36Zm724.03-186.42c20.41,61.01,31.75,123.09,34.35,186.68h178.55c-5.16-92.6-34.58-176.11-88.41-251.39-39.5,25.84-80.67,47.21-124.49,64.71Zm124.5,485.23c53.84-75.38,83.27-158.88,88.39-251.46h-178.37c-2.1,64.09-13.12,126.41-32.97,187.37,43.34,17.41,83.98,38.62,122.95,64.08ZM71.54,563.5c5.19,92.49,34.52,176.01,88.44,251.49,39-25.48,79.78-46.75,122.97-64.08-19.93-61.06-30.88-123.38-33.02-187.4H71.54Zm491.91,138.36c64.83,2.35,128,13.3,190.02,33.24,18.26-56.07,28.19-112.93,30.25-171.17-6.11-1.16-216.47-.93-220.28.18v137.75Zm-267.05-138.39c2.07,58.94,12.04,115.81,30.28,171.67,62.12-19.98,125.16-30.88,189.78-33.27v-138.4h-220.06Zm455.53-218.06c-61.61,19.71-124.31,30.41-188.26,32.8-1.09,9.56-.69,134.61.35,138.29h219.48c-2.45-58.65-12.97-115.43-31.57-171.09Zm-455.35,171.05h219.83v-138.29c-64.32-2.39-126.87-13.18-188.23-32.77-18.61,55.71-29.04,112.39-31.61,171.06Zm266.98,231.86v259.62c6.6,1.06,11.62-.44,16.57-4.96,67.7-61.89,119.56-134.94,155.3-219.41.6-1.42,1.11-2.88,1.89-4.89-56.57-18.07-114.19-28.08-173.76-30.35Zm-220.72,30.37c.84,2.18,1.42,3.8,2.09,5.38,35.81,84.48,87.77,157.49,155.54,219.33,4.87,4.44,9.81,5.41,15.95,4.61v-259.67c-59.25,2.27-116.73,12.24-173.59,30.36Zm392.57-476.74c-.92-2.33-1.61-4.27-2.44-6.17-27.99-64.36-65.68-122.41-113.19-174.06-15.27-16.61-31.45-32.29-48.43-47.15-2.28-2-4.48-3.99-7.78-2.32-1.13,11.12-.62,255.46.61,259.46,58.26-2.27,115.25-12.01,171.23-29.76Zm-218.87-229.69c-3.7-1.68-5.78.62-8.02,2.59-70.39,61.72-124.18,135.54-161.52,221.37-.76,1.74-1.43,3.51-2.13,5.25,27.84,13.23,150.54,34.24,171.67,29.45V72.26Zm-215.75,214.01c31.47-75.13,74.86-142.09,129.94-201.74-34.81,7.49-67.78,19.61-99.43,35.39-54.18,27.01-101.31,63.2-142.03,108.77,35.37,22.88,72.16,41.83,111.52,57.58Zm348.23-202.1c55.28,59.66,98.77,126.8,130.33,202.09,39.19-15.61,76.1-34.66,111.62-57.62-66.1-73.15-146.34-121.48-241.95-144.48ZM189.74,851.05c13.44,20.27,68.32,66.36,106.95,89.99,36.64,22.42,113.8,54.21,128.49,52.74-17.97-19.68-34.63-40.13-50.06-61.59-15.33-21.33-29.33-43.5-42.07-66.47-12.77-23.04-23.99-46.83-34.15-71.21-38.64,15.63-74.81,34.29-109.16,56.54Zm591.42-56.56c-30.49,74.24-72.49,140.51-125.83,199.79,93-23.7,171.18-71.48,235.62-142.91-35.07-22.63-71.23-41.37-109.78-56.88Z" style="fill: #f3f7f8;"/>
      <rect width="1080" height="1080" style="fill: none;"/>
    </g>
  </g>
</svg>