<?xml version="1.0" encoding="UTF-8"?>
<svg id="uuid-36a1bf4c-4236-41f3-b398-b48f8bcdd343" data-name="Layer 2" xmlns="http://www.w3.org/2000/svg" viewBox="0 0 1080 1080">
  <g id="uuid-e7182eb9-8977-4842-83a5-6bfafbbfd1bb" data-name="Layer 1">
    <g>
      <path d="m1025,540c0-267.86-217.14-485-485-485S55,272.14,55,540s217.14,485,485,485,485-217.14,485-485Zm-205.24-76.3l-47.75-71.63,25.43-16.95,47.75,71.63-25.43,16.96Zm25.43,169.55l-47.75,71.63-25.43-16.96,47.75-71.63,25.43,16.96Zm-53.98,80.97l-47.75,71.63-25.43-16.96,47.75-71.63,25.43,16.96Zm12.72,8.48l25.43,16.96-47.75,71.63-25.43-16.96,47.75-71.63Zm6.23-9.34l47.75-71.63,25.43,16.96-47.75,71.63-25.43-16.96Zm47.75-275.09l-101.73-152.6,25.43-16.96,101.73,152.6-25.43,16.96Zm-66.7-72.49l-25.43,16.95-47.75-71.63,25.43-16.96,47.75,71.63Zm-98.62,275.95c-56.18,84.28-170.05,107.05-254.33,50.87-84.28-56.18-107.05-170.05-50.87-254.33,56.18-84.28,170.05-107.05,254.33-50.87,84.28,56.18,107.05,170.05,50.87,254.33Zm-330.62,127.16l-25.43,16.96-101.73-152.6,25.43-16.96,101.73,152.6Zm-101.73-305.19l-25.43-16.96,101.73-152.6,25.43,16.96-101.73,152.6Zm-38.15-25.43l-25.43-16.96,101.73-152.6,25.43,16.96-101.73,152.6Zm0,203.46l47.75,71.63-25.43,16.96-47.75-71.63,25.43-16.96Zm53.98,80.97l47.75,71.63-25.43,16.96-47.75-71.63,25.43-16.96Zm543.69,114.01l-25.43-16.96,47.75-71.63,25.43,16.96-47.75,71.63Zm53.98-80.97l-25.43-16.96,47.75-71.63,25.43,16.96-47.75,71.63Zm47.75-359.86l-25.43,16.96-47.75-71.63,25.43-16.95,47.75,71.63Zm-79.41-64.01l-47.75-71.63,25.43-16.96,47.75,71.63-25.43,16.95Zm-581.84-88.58l25.43,16.96-101.73,152.6-25.43-16.96,101.73-152.6Zm-101.73,440.83l25.43-16.96,101.73,152.6-25.43,16.96-101.73-152.6Z" style="fill: #fff;"/>
      <path d="m641.73,387.4c-84.28-56.18-198.14-33.41-254.33,50.87-28.09,42.14-16.71,99.07,25.43,127.16,42.14,28.09,99.07,16.71,127.16-25.43,28.09-42.14,85.02-53.52,127.16-25.43,42.14,28.09,53.52,85.02,25.43,127.16,56.18-84.28,33.41-198.14-50.87-254.33Z" style="fill: #cd2e3a;"/>
      <path d="m667.16,514.57c-42.14-28.09-99.07-16.71-127.16,25.43-28.09,42.14-85.02,53.52-127.16,25.43-42.14-28.09-53.52-85.02-25.43-127.16-56.18,84.28-33.41,198.14,50.87,254.33,84.28,56.18,198.14,33.41,254.33-50.87,28.09-42.14,16.71-99.07-25.43-127.16Z" style="fill: #0047a0;"/>
      <g>
        <rect x="815.07" y="244.71" width="30.57" height="84.06" transform="translate(-19.59 508.76) rotate(-33.69)"/>
        <rect x="804.48" y="261.8" width="30.57" height="183.4" transform="translate(-58.41 514.09) rotate(-33.69)"/>
        <rect x="738.77" y="295.57" width="30.57" height="84.06" transform="translate(-60.62 474.98) rotate(-33.69)"/>
        <rect x="168.54" y="338.21" width="183.4" height="30.57" transform="translate(-178.24 373.95) rotate(-56.31)"/>
        <rect x="870.18" y="327.36" width="30.57" height="84.06" transform="translate(-56.19 553.2) rotate(-33.69)"/>
        <rect x="767.13" y="644.46" width="84.06" height="30.57" transform="translate(-188.62 967.05) rotate(-56.31)"/>
        <rect x="793.88" y="378.23" width="30.57" height="84.06" transform="translate(-97.22 519.42) rotate(-33.69)"/>
        <rect x="805.28" y="669.89" width="84.06" height="30.57" transform="translate(-192.79 1010.12) rotate(-56.31)"/>
        <rect x="217.41" y="643.15" width="30.57" height="84.06" transform="translate(-340.99 244.15) rotate(-33.69)"/>
        <rect x="788.33" y="777.98" width="84.06" height="30.57" transform="translate(-290.28 1044.14) rotate(-56.31)"/>
        <rect x="712.03" y="727.12" width="84.06" height="30.57" transform="translate(-281.93 958.01) rotate(-56.31)"/>
        <rect x="750.18" y="752.55" width="84.06" height="30.57" transform="translate(-286.11 1001.07) rotate(-56.31)"/>
        <rect x="843.43" y="695.33" width="84.06" height="30.57" transform="translate(-196.97 1053.18) rotate(-56.31)"/>
        <rect x="272.51" y="725.81" width="30.57" height="84.06" transform="translate(-377.58 288.6) rotate(-33.69)"/>
        <rect x="130.39" y="312.78" width="183.4" height="30.57" transform="translate(-174.07 330.88) rotate(-56.31)"/>
        <rect x="206.69" y="363.64" width="183.4" height="30.57" transform="translate(-182.41 417.01) rotate(-56.31)"/>
        <rect x="206.81" y="660.24" width="30.57" height="183.4" transform="translate(-379.8 249.48) rotate(-33.69)"/>
        <rect x="283.11" y="609.37" width="30.57" height="183.4" transform="translate(-338.77 283.26) rotate(-33.69)"/>
      </g>
    </g>
    <rect width="1080" height="1080" style="fill: none;"/>
    <path d="m540,85c61.44,0,121.02,12.03,177.1,35.74,54.18,22.92,102.84,55.73,144.64,97.52,41.8,41.8,74.61,90.46,97.52,144.64,23.72,56.08,35.74,115.66,35.74,177.1s-12.03,121.02-35.74,177.1c-22.92,54.18-55.73,102.84-97.52,144.64-41.8,41.8-90.46,74.61-144.64,97.52-56.08,23.72-115.66,35.74-177.1,35.74s-121.02-12.03-177.1-35.74c-54.18-22.92-102.84-55.73-144.64-97.52-41.8-41.8-74.61-90.46-97.52-144.64-23.72-56.08-35.74-115.66-35.74-177.1s12.03-121.02,35.74-177.1c22.92-54.18,55.73-102.84,97.52-144.64,41.8-41.8,90.46-74.61,144.64-97.52,56.08-23.72,115.66-35.74,177.1-35.74m0-30c-267.86,0-485,217.14-485,485s217.14,485,485,485,485-217.14,485-485S807.86,55,540,55h0Z" style="fill: #f3f7f8;"/>
    <path d="m540,55c267.86,0,485,217.14,485,485s-217.14,485-485,485S55,807.86,55,540,272.14,55,540,55m0-30c-69.51,0-136.96,13.62-200.47,40.48-61.33,25.94-116.4,63.07-163.69,110.36s-84.42,102.36-110.36,163.69c-26.86,63.51-40.48,130.96-40.48,200.47s13.62,136.96,40.48,200.47c25.94,61.33,63.07,116.4,110.36,163.69,47.29,47.29,102.36,84.42,163.69,110.36,63.51,26.86,130.96,40.48,200.47,40.48s136.96-13.62,200.47-40.48c61.33-25.94,116.4-63.07,163.69-110.36,47.29-47.29,84.42-102.36,110.36-163.69,26.86-63.51,40.48-130.96,40.48-200.47s-13.62-136.96-40.48-200.47c-25.94-61.33-63.07-116.4-110.36-163.69-47.29-47.29-102.36-84.42-163.69-110.36-63.51-26.86-130.96-40.48-200.47-40.48h0Z" style="fill: #02111a;"/>
  </g>
</svg>